<svg xmlns="http://www.w3.org/2000/svg" viewBox="26 4 706 240" shape-rendering="crispEdges">
<g transform="translate(-10,0) scale(0.9)">
<rect x="50" y="10" width="220" height="20" fill="#a855f7" fill-opacity="0.1"/>
<rect x="100" y="10" width="120" height="20" fill="#22d3ee" fill-opacity="0.18"/>
<rect x="65" y="30" width="190" height="20" fill="#a855f7" fill-opacity="0.14"/>
<rect x="115" y="30" width="90" height="20" fill="#22d3ee" fill-opacity="0.25"/>
<rect x="80" y="50" width="160" height="20" fill="#a855f7" fill-opacity="0.18"/>
<rect x="125" y="50" width="70" height="20" fill="#22d3ee" fill-opacity="0.35"/>
<rect x="95" y="70" width="130" height="20" fill="#a855f7" fill-opacity="0.22"/>
<rect x="135" y="70" width="50" height="20" fill="#22d3ee" fill-opacity="0.45"/>
<rect x="110" y="90" width="100" height="20" fill="#a855f7" fill-opacity="0.28"/>
<rect x="142" y="90" width="36" height="20" fill="#22d3ee" fill-opacity="0.6"/>
<rect x="122" y="110" width="76" height="20" fill="#a855f7" fill-opacity="0.35"/>
<rect x="148" y="110" width="24" height="20" fill="#67e8f9" fill-opacity="0.85"/>
<rect x="132" y="130" width="56" height="20" fill="#22d3ee" fill-opacity="0.6"/>
<rect x="152" y="130" width="16" height="20" fill="#ecfeff"/>
<rect x="128" y="150" width="64" height="40" fill="#083344"/>
<rect x="132" y="154" width="56" height="32" fill="#a5f3fc"/>
<rect x="132" y="154" width="56" height="8" fill="#ecfeff" fill-opacity="0.9"/>
<rect x="136" y="164" width="10" height="10" fill="#67e8f9"/>
<rect x="174" y="170" width="10" height="10" fill="#22d3ee"/>
<rect x="108" y="190" width="104" height="20" fill="#2d1b4e"/>
<rect x="108" y="190" width="104" height="4" fill="#4c2f7a" fill-opacity="0.6"/>
<rect x="78" y="210" width="164" height="22" fill="#20123a"/>
<rect x="78" y="210" width="164" height="4" fill="#4c2f7a" fill-opacity="0.6"/>
<rect x="46" y="232" width="228" height="30" fill="#160c28"/>
<rect x="46" y="232" width="228" height="4" fill="#4c2f7a" fill-opacity="0.6"/>
<rect x="60" y="242" width="8" height="8" fill="#3a2264" fill-opacity="0.5"/>
<rect x="90" y="250" width="8" height="8" fill="#3a2264" fill-opacity="0.5"/>
<rect x="140" y="238" width="8" height="8" fill="#3a2264" fill-opacity="0.5"/>
<rect x="190" y="252" width="8" height="8" fill="#3a2264" fill-opacity="0.5"/>
<rect x="230" y="240" width="8" height="8" fill="#3a2264" fill-opacity="0.5"/>
<rect x="210" y="246" width="8" height="8" fill="#3a2264" fill-opacity="0.5"/>
<rect x="120" y="246" width="8" height="8" fill="#3a2264" fill-opacity="0.5"/>
<rect x="70" y="236" width="8" height="8" fill="#3a2264" fill-opacity="0.5"/>
</g>
<rect x="304" y="122" width="12" height="12" fill="#a855f7"/>
<rect x="316" y="122" width="12" height="12" fill="#a855f7"/>
<rect x="328" y="122" width="12" height="12" fill="#a855f7"/>
<rect x="340" y="122" width="12" height="12" fill="#a855f7"/>
<rect x="304" y="134" width="12" height="12" fill="#a855f7"/>
<rect x="352" y="134" width="12" height="12" fill="#a855f7"/>
<rect x="304" y="146" width="12" height="12" fill="#a855f7"/>
<rect x="352" y="146" width="12" height="12" fill="#a855f7"/>
<rect x="304" y="158" width="12" height="12" fill="#a855f7"/>
<rect x="316" y="158" width="12" height="12" fill="#a855f7"/>
<rect x="328" y="158" width="12" height="12" fill="#a855f7"/>
<rect x="340" y="158" width="12" height="12" fill="#a855f7"/>
<rect x="304" y="170" width="12" height="12" fill="#a855f7"/>
<rect x="352" y="170" width="12" height="12" fill="#a855f7"/>
<rect x="304" y="182" width="12" height="12" fill="#a855f7"/>
<rect x="352" y="182" width="12" height="12" fill="#a855f7"/>
<rect x="304" y="194" width="12" height="12" fill="#a855f7"/>
<rect x="316" y="194" width="12" height="12" fill="#a855f7"/>
<rect x="328" y="194" width="12" height="12" fill="#a855f7"/>
<rect x="340" y="194" width="12" height="12" fill="#a855f7"/>
<rect x="376" y="122" width="12" height="12" fill="#a855f7"/>
<rect x="388" y="122" width="12" height="12" fill="#a855f7"/>
<rect x="400" y="122" width="12" height="12" fill="#a855f7"/>
<rect x="412" y="122" width="12" height="12" fill="#a855f7"/>
<rect x="424" y="122" width="12" height="12" fill="#a855f7"/>
<rect x="376" y="134" width="12" height="12" fill="#a855f7"/>
<rect x="376" y="146" width="12" height="12" fill="#a855f7"/>
<rect x="376" y="158" width="12" height="12" fill="#a855f7"/>
<rect x="388" y="158" width="12" height="12" fill="#a855f7"/>
<rect x="400" y="158" width="12" height="12" fill="#a855f7"/>
<rect x="412" y="158" width="12" height="12" fill="#a855f7"/>
<rect x="376" y="170" width="12" height="12" fill="#a855f7"/>
<rect x="376" y="182" width="12" height="12" fill="#a855f7"/>
<rect x="376" y="194" width="12" height="12" fill="#a855f7"/>
<rect x="388" y="194" width="12" height="12" fill="#a855f7"/>
<rect x="400" y="194" width="12" height="12" fill="#a855f7"/>
<rect x="412" y="194" width="12" height="12" fill="#a855f7"/>
<rect x="424" y="194" width="12" height="12" fill="#a855f7"/>
<rect x="460" y="122" width="12" height="12" fill="#a855f7"/>
<rect x="472" y="122" width="12" height="12" fill="#a855f7"/>
<rect x="484" y="122" width="12" height="12" fill="#a855f7"/>
<rect x="448" y="134" width="12" height="12" fill="#a855f7"/>
<rect x="496" y="134" width="12" height="12" fill="#a855f7"/>
<rect x="448" y="146" width="12" height="12" fill="#a855f7"/>
<rect x="496" y="146" width="12" height="12" fill="#a855f7"/>
<rect x="448" y="158" width="12" height="12" fill="#a855f7"/>
<rect x="460" y="158" width="12" height="12" fill="#a855f7"/>
<rect x="472" y="158" width="12" height="12" fill="#a855f7"/>
<rect x="484" y="158" width="12" height="12" fill="#a855f7"/>
<rect x="496" y="158" width="12" height="12" fill="#a855f7"/>
<rect x="448" y="170" width="12" height="12" fill="#a855f7"/>
<rect x="496" y="170" width="12" height="12" fill="#a855f7"/>
<rect x="448" y="182" width="12" height="12" fill="#a855f7"/>
<rect x="496" y="182" width="12" height="12" fill="#a855f7"/>
<rect x="448" y="194" width="12" height="12" fill="#a855f7"/>
<rect x="496" y="194" width="12" height="12" fill="#a855f7"/>
<rect x="532" y="122" width="12" height="12" fill="#a855f7"/>
<rect x="544" y="122" width="12" height="12" fill="#a855f7"/>
<rect x="556" y="122" width="12" height="12" fill="#a855f7"/>
<rect x="568" y="122" width="12" height="12" fill="#a855f7"/>
<rect x="520" y="134" width="12" height="12" fill="#a855f7"/>
<rect x="520" y="146" width="12" height="12" fill="#a855f7"/>
<rect x="520" y="158" width="12" height="12" fill="#a855f7"/>
<rect x="520" y="170" width="12" height="12" fill="#a855f7"/>
<rect x="520" y="182" width="12" height="12" fill="#a855f7"/>
<rect x="532" y="194" width="12" height="12" fill="#a855f7"/>
<rect x="544" y="194" width="12" height="12" fill="#a855f7"/>
<rect x="556" y="194" width="12" height="12" fill="#a855f7"/>
<rect x="568" y="194" width="12" height="12" fill="#a855f7"/>
<rect x="604" y="122" width="12" height="12" fill="#a855f7"/>
<rect x="616" y="122" width="12" height="12" fill="#a855f7"/>
<rect x="628" y="122" width="12" height="12" fill="#a855f7"/>
<rect x="592" y="134" width="12" height="12" fill="#a855f7"/>
<rect x="640" y="134" width="12" height="12" fill="#a855f7"/>
<rect x="592" y="146" width="12" height="12" fill="#a855f7"/>
<rect x="640" y="146" width="12" height="12" fill="#a855f7"/>
<rect x="592" y="158" width="12" height="12" fill="#a855f7"/>
<rect x="640" y="158" width="12" height="12" fill="#a855f7"/>
<rect x="592" y="170" width="12" height="12" fill="#a855f7"/>
<rect x="640" y="170" width="12" height="12" fill="#a855f7"/>
<rect x="592" y="182" width="12" height="12" fill="#a855f7"/>
<rect x="640" y="182" width="12" height="12" fill="#a855f7"/>
<rect x="604" y="194" width="12" height="12" fill="#a855f7"/>
<rect x="616" y="194" width="12" height="12" fill="#a855f7"/>
<rect x="628" y="194" width="12" height="12" fill="#a855f7"/>
<rect x="664" y="122" width="12" height="12" fill="#a855f7"/>
<rect x="712" y="122" width="12" height="12" fill="#a855f7"/>
<rect x="664" y="134" width="12" height="12" fill="#a855f7"/>
<rect x="676" y="134" width="12" height="12" fill="#a855f7"/>
<rect x="712" y="134" width="12" height="12" fill="#a855f7"/>
<rect x="664" y="146" width="12" height="12" fill="#a855f7"/>
<rect x="688" y="146" width="12" height="12" fill="#a855f7"/>
<rect x="712" y="146" width="12" height="12" fill="#a855f7"/>
<rect x="664" y="158" width="12" height="12" fill="#a855f7"/>
<rect x="688" y="158" width="12" height="12" fill="#a855f7"/>
<rect x="712" y="158" width="12" height="12" fill="#a855f7"/>
<rect x="664" y="170" width="12" height="12" fill="#a855f7"/>
<rect x="700" y="170" width="12" height="12" fill="#a855f7"/>
<rect x="712" y="170" width="12" height="12" fill="#a855f7"/>
<rect x="664" y="182" width="12" height="12" fill="#a855f7"/>
<rect x="712" y="182" width="12" height="12" fill="#a855f7"/>
<rect x="664" y="194" width="12" height="12" fill="#a855f7"/>
<rect x="712" y="194" width="12" height="12" fill="#a855f7"/>
<rect x="300" y="118" width="12" height="12" fill="#22d3ee"/>
<rect x="312" y="118" width="12" height="12" fill="#22d3ee"/>
<rect x="324" y="118" width="12" height="12" fill="#22d3ee"/>
<rect x="336" y="118" width="12" height="12" fill="#22d3ee"/>
<rect x="300" y="130" width="12" height="12" fill="#22d3ee"/>
<rect x="348" y="130" width="12" height="12" fill="#22d3ee"/>
<rect x="300" y="142" width="12" height="12" fill="#22d3ee"/>
<rect x="348" y="142" width="12" height="12" fill="#22d3ee"/>
<rect x="300" y="154" width="12" height="12" fill="#22d3ee"/>
<rect x="312" y="154" width="12" height="12" fill="#22d3ee"/>
<rect x="324" y="154" width="12" height="12" fill="#22d3ee"/>
<rect x="336" y="154" width="12" height="12" fill="#22d3ee"/>
<rect x="300" y="166" width="12" height="12" fill="#22d3ee"/>
<rect x="348" y="166" width="12" height="12" fill="#22d3ee"/>
<rect x="300" y="178" width="12" height="12" fill="#22d3ee"/>
<rect x="348" y="178" width="12" height="12" fill="#22d3ee"/>
<rect x="300" y="190" width="12" height="12" fill="#22d3ee"/>
<rect x="312" y="190" width="12" height="12" fill="#22d3ee"/>
<rect x="324" y="190" width="12" height="12" fill="#22d3ee"/>
<rect x="336" y="190" width="12" height="12" fill="#22d3ee"/>
<rect x="372" y="118" width="12" height="12" fill="#22d3ee"/>
<rect x="384" y="118" width="12" height="12" fill="#22d3ee"/>
<rect x="396" y="118" width="12" height="12" fill="#22d3ee"/>
<rect x="408" y="118" width="12" height="12" fill="#22d3ee"/>
<rect x="420" y="118" width="12" height="12" fill="#22d3ee"/>
<rect x="372" y="130" width="12" height="12" fill="#22d3ee"/>
<rect x="372" y="142" width="12" height="12" fill="#22d3ee"/>
<rect x="372" y="154" width="12" height="12" fill="#22d3ee"/>
<rect x="384" y="154" width="12" height="12" fill="#22d3ee"/>
<rect x="396" y="154" width="12" height="12" fill="#22d3ee"/>
<rect x="408" y="154" width="12" height="12" fill="#22d3ee"/>
<rect x="372" y="166" width="12" height="12" fill="#22d3ee"/>
<rect x="372" y="178" width="12" height="12" fill="#22d3ee"/>
<rect x="372" y="190" width="12" height="12" fill="#22d3ee"/>
<rect x="384" y="190" width="12" height="12" fill="#22d3ee"/>
<rect x="396" y="190" width="12" height="12" fill="#22d3ee"/>
<rect x="408" y="190" width="12" height="12" fill="#22d3ee"/>
<rect x="420" y="190" width="12" height="12" fill="#22d3ee"/>
<rect x="456" y="118" width="12" height="12" fill="#22d3ee"/>
<rect x="468" y="118" width="12" height="12" fill="#22d3ee"/>
<rect x="480" y="118" width="12" height="12" fill="#22d3ee"/>
<rect x="444" y="130" width="12" height="12" fill="#22d3ee"/>
<rect x="492" y="130" width="12" height="12" fill="#22d3ee"/>
<rect x="444" y="142" width="12" height="12" fill="#22d3ee"/>
<rect x="492" y="142" width="12" height="12" fill="#22d3ee"/>
<rect x="444" y="154" width="12" height="12" fill="#22d3ee"/>
<rect x="456" y="154" width="12" height="12" fill="#22d3ee"/>
<rect x="468" y="154" width="12" height="12" fill="#22d3ee"/>
<rect x="480" y="154" width="12" height="12" fill="#22d3ee"/>
<rect x="492" y="154" width="12" height="12" fill="#22d3ee"/>
<rect x="444" y="166" width="12" height="12" fill="#22d3ee"/>
<rect x="492" y="166" width="12" height="12" fill="#22d3ee"/>
<rect x="444" y="178" width="12" height="12" fill="#22d3ee"/>
<rect x="492" y="178" width="12" height="12" fill="#22d3ee"/>
<rect x="444" y="190" width="12" height="12" fill="#22d3ee"/>
<rect x="492" y="190" width="12" height="12" fill="#22d3ee"/>
<rect x="528" y="118" width="12" height="12" fill="#22d3ee"/>
<rect x="540" y="118" width="12" height="12" fill="#22d3ee"/>
<rect x="552" y="118" width="12" height="12" fill="#22d3ee"/>
<rect x="564" y="118" width="12" height="12" fill="#22d3ee"/>
<rect x="516" y="130" width="12" height="12" fill="#22d3ee"/>
<rect x="516" y="142" width="12" height="12" fill="#22d3ee"/>
<rect x="516" y="154" width="12" height="12" fill="#22d3ee"/>
<rect x="516" y="166" width="12" height="12" fill="#22d3ee"/>
<rect x="516" y="178" width="12" height="12" fill="#22d3ee"/>
<rect x="528" y="190" width="12" height="12" fill="#22d3ee"/>
<rect x="540" y="190" width="12" height="12" fill="#22d3ee"/>
<rect x="552" y="190" width="12" height="12" fill="#22d3ee"/>
<rect x="564" y="190" width="12" height="12" fill="#22d3ee"/>
<rect x="600" y="118" width="12" height="12" fill="#22d3ee"/>
<rect x="612" y="118" width="12" height="12" fill="#22d3ee"/>
<rect x="624" y="118" width="12" height="12" fill="#22d3ee"/>
<rect x="588" y="130" width="12" height="12" fill="#22d3ee"/>
<rect x="636" y="130" width="12" height="12" fill="#22d3ee"/>
<rect x="588" y="142" width="12" height="12" fill="#22d3ee"/>
<rect x="636" y="142" width="12" height="12" fill="#22d3ee"/>
<rect x="588" y="154" width="12" height="12" fill="#22d3ee"/>
<rect x="636" y="154" width="12" height="12" fill="#22d3ee"/>
<rect x="588" y="166" width="12" height="12" fill="#22d3ee"/>
<rect x="636" y="166" width="12" height="12" fill="#22d3ee"/>
<rect x="588" y="178" width="12" height="12" fill="#22d3ee"/>
<rect x="636" y="178" width="12" height="12" fill="#22d3ee"/>
<rect x="600" y="190" width="12" height="12" fill="#22d3ee"/>
<rect x="612" y="190" width="12" height="12" fill="#22d3ee"/>
<rect x="624" y="190" width="12" height="12" fill="#22d3ee"/>
<rect x="660" y="118" width="12" height="12" fill="#22d3ee"/>
<rect x="708" y="118" width="12" height="12" fill="#22d3ee"/>
<rect x="660" y="130" width="12" height="12" fill="#22d3ee"/>
<rect x="672" y="130" width="12" height="12" fill="#22d3ee"/>
<rect x="708" y="130" width="12" height="12" fill="#22d3ee"/>
<rect x="660" y="142" width="12" height="12" fill="#22d3ee"/>
<rect x="684" y="142" width="12" height="12" fill="#22d3ee"/>
<rect x="708" y="142" width="12" height="12" fill="#22d3ee"/>
<rect x="660" y="154" width="12" height="12" fill="#22d3ee"/>
<rect x="684" y="154" width="12" height="12" fill="#22d3ee"/>
<rect x="708" y="154" width="12" height="12" fill="#22d3ee"/>
<rect x="660" y="166" width="12" height="12" fill="#22d3ee"/>
<rect x="696" y="166" width="12" height="12" fill="#22d3ee"/>
<rect x="708" y="166" width="12" height="12" fill="#22d3ee"/>
<rect x="660" y="178" width="12" height="12" fill="#22d3ee"/>
<rect x="708" y="178" width="12" height="12" fill="#22d3ee"/>
<rect x="660" y="190" width="12" height="12" fill="#22d3ee"/>
<rect x="708" y="190" width="12" height="12" fill="#22d3ee"/>
</svg>